<svg width="365" height="214" viewBox="0 0 365 214" fill="none" xmlns="http://www.w3.org/2000/svg">
<rect x="1.5" y="1.5" width="362" height="211" fill="#E4E4E4" stroke="#A8A8A8"/>
<path d="M364 1C222.24 83.6096 1 213 1 213" stroke="#A8A8A8" stroke-width="0.929134"/>
<path d="M0.999991 1C142.76 83.6096 364 213 364 213" stroke="#A8A8A8" stroke-width="0.929134"/>
<path d="M174.15 100.45H175.186V113.078H174.15V100.45ZM168.564 101.444C170.412 101.444 171.742 103.152 171.742 105.826C171.742 108.486 170.412 110.208 168.564 110.208C166.702 110.208 165.372 108.486 165.372 105.826C165.372 103.152 166.702 101.444 168.564 101.444ZM168.564 102.368C167.276 102.368 166.38 103.754 166.38 105.826C166.38 107.898 167.276 109.284 168.564 109.284C169.852 109.284 170.734 107.898 170.734 105.826C170.734 103.754 169.852 102.368 168.564 102.368ZM178.503 101.71H184.257V109.872H178.503V101.71ZM183.249 102.55H179.525V109.032H183.249V102.55ZM187.029 100.45H188.065V113.078H187.029V100.45ZM194.041 102.228H194.895V104.384C194.895 107.016 193.201 109.648 191.269 110.628L190.667 109.802C192.431 108.948 194.041 106.568 194.041 104.384V102.228ZM194.237 102.228H195.091V104.384C195.091 106.54 196.687 108.71 198.493 109.494L197.905 110.32C195.931 109.396 194.237 106.988 194.237 104.384V102.228ZM191.059 101.766H198.101V102.634H191.059V101.766ZM199.907 100.464H200.943V113.064H199.907V100.464Z" fill="black"/>
</svg>
