<svg width="183" height="183" viewBox="0 0 183 183" fill="none" xmlns="http://www.w3.org/2000/svg">
<rect x="0.8" y="0.8" width="181.4" height="181.4" rx="9.2" fill="#F3F4F6"/>
<rect x="0.8" y="0.8" width="181.4" height="181.4" rx="9.2" stroke="#D2D5DA" stroke-width="1.6" stroke-dasharray="8 6"/>
<path d="M95 75.3333H95.0117M92.0833 90.5H84.5C83.5717 90.5 82.6815 90.1313 82.0251 89.4749C81.3687 88.8185 81 87.9283 81 87V73C81 72.0717 81.3687 71.1815 82.0251 70.5251C82.6815 69.8687 83.5717 69.5 84.5 69.5H98.5C99.4283 69.5 100.318 69.8687 100.975 70.5251C101.631 71.1815 102 72.0717 102 73V80.5833" stroke="#9DA3AE" stroke-width="2.33333" stroke-linecap="round" stroke-linejoin="round"/>
<path d="M81 84.6665L86.8333 78.8331C87.916 77.7913 89.2507 77.7913 90.3333 78.8331L95 83.4998" stroke="#9DA3AE" stroke-width="2.33333" stroke-linecap="round" stroke-linejoin="round"/>
<path d="M93.8335 82.3335L95.0002 81.1669C95.7818 80.4155 96.6918 80.2055 97.5458 80.5369M96.1668 88.1669H103.167M99.6668 84.6669V91.6669" stroke="#9DA3AE" stroke-width="2.33333" stroke-linecap="round" stroke-linejoin="round"/>
<path d="M61.7188 104.266V118.406H59.9688V104.266H61.7188ZM50.4219 110.281C50.4141 107.234 51.9688 105.297 54.1094 105.297C56.2266 105.297 57.7891 107.234 57.7969 110.281C57.7891 113.352 56.2266 115.281 54.1094 115.281C51.9688 115.281 50.4141 113.352 50.4219 110.281ZM52.0938 110.281C52.0938 112.453 52.9141 113.711 54.1094 113.719C55.2969 113.711 56.1094 112.453 56.1094 110.281C56.1094 108.125 55.2969 106.859 54.1094 106.859C52.9141 106.859 52.0938 108.125 52.0938 110.281ZM70.7056 105.594V114.953H63.9869V105.594H70.7056ZM65.7056 113.562H69.0181V106.953H65.7056V113.562ZM73.2369 118.406V104.266H74.9869V118.406H73.2369ZM81.8331 108.281C81.8331 110.594 83.1925 113.031 85.4737 113.984L84.5206 115.359C82.8487 114.633 81.63 113.156 80.9816 111.359C80.3331 113.297 79.0909 114.922 77.4425 115.703L76.4425 114.344C78.6691 113.312 80.0597 110.68 80.0675 108.281V107.094H76.9581V105.656H84.9269V107.094H81.8331V108.281ZM86.505 118.391V104.266H88.255V118.391H86.505ZM96.9319 104.891C98.76 104.883 100.197 105.938 100.549 107.484H103.104V104.266H104.838V111.844H103.104V108.891H100.565C100.229 110.477 98.7756 111.547 96.9319 111.547C94.7678 111.547 93.1975 110.156 93.1975 108.203C93.1975 106.273 94.7678 104.883 96.9319 104.891ZM94.8537 108.203C94.8537 109.336 95.7131 110.086 96.9319 110.078C98.1194 110.086 98.9709 109.336 98.9787 108.203C98.9709 107.07 98.1194 106.336 96.9319 106.344C95.7131 106.336 94.8537 107.07 94.8537 108.203ZM95.5256 118.219V112.5H97.2444V114H103.104V112.5H104.838V118.219H95.5256ZM97.2444 116.812H103.104V115.344H97.2444V116.812ZM119.184 115.312V116.75H106.278V115.312H111.841V113.016H107.809V108.391H115.934V106.641H107.778V105.234H117.653V109.766H109.544V111.594H117.981V113.016H113.559V115.312H119.184ZM131.015 110.891V112.281H121.109V105.5H130.906V106.906H122.827V110.891H131.015ZM119.546 116.594V115.156H132.452V116.594H119.546Z" fill="#6C727F"/>
</svg>
