<svg width="106" height="46" viewBox="0 0 106 46" fill="none" xmlns="http://www.w3.org/2000/svg">
<path d="M46.3032 32.6405C46.3032 32.6281 46.3037 32.619 46.3054 32.6067C46.5889 30.6098 47.5816 13.6943 61.2911 12.4634C69.9988 12.0937 79.6632 19.3529 89.5745 19.3529C95.0306 19.3529 100.021 17.1415 103.975 12.9471C104.055 12.8619 104.2 12.9179 104.2 13.0349V27.0466C104.2 27.3064 104.101 27.5574 103.919 27.7433C99.8548 31.9052 94.7643 34.099 89.2119 34.099C79.3006 34.099 70.8398 27.2095 60.9284 27.2095C55.5767 27.2095 50.6729 29.3372 46.7559 33.377C46.593 33.545 46.3032 33.4316 46.3032 33.1976V32.6405Z" fill="url(#paint0_linear_563_1700)"/>
<path d="M1.70384 13.7311V9.04905H24.0947V13.7311H15.7123V36.3862H10.0862V13.7311H1.70384ZM26.1079 36.3862H19.9911L29.4684 9.04905H36.7558L46.1955 36.3862H40.1164L38.0585 30.0806H28.1658L26.1079 36.3862ZM29.6006 25.6628H36.6237L33.2065 15.2037H33.0178L29.6006 25.6628ZM47.2467 9.04905L53.8922 29.8918H54.1565L60.8398 9.04905H67.1077L57.668 36.3862H50.3806L40.9032 9.04905H47.2467ZM69.4306 36.3862V9.04905H87.7812V13.7311H75.0944V20.3766H86.8373V25.0587H75.0944V31.7042H87.819V36.3862H69.4306Z" fill="white"/>
<defs>
<linearGradient id="paint0_linear_563_1700" x1="101.572" y1="10.0088" x2="38.384" y2="40.4803" gradientUnits="userSpaceOnUse">
<stop stop-color="#64B4FF"/>
<stop offset="0.324999" stop-color="#1A5BFF"/>
<stop offset="1" stop-color="#233D81"/>
</linearGradient>
</defs>
</svg>
