<svg width="1440" height="1024" viewBox="0 0 1440 1024" fill="none" xmlns="http://www.w3.org/2000/svg">
<g opacity="0.1">
<path d="M-184.29 982.523C-171.991 923.602 -101.776 888.421 -34.2776 881.603C33.2205 874.786 102.149 888.177 170.505 888.177C353.551 888.055 526.157 780.805 586.076 629.852C605.239 581.523 613.676 529.906 632.41 481.333C651.144 432.882 682.891 385.527 734.515 362.519C808.735 329.285 901.688 354.849 976.622 391.979C1051.56 429.108 1121.63 478.29 1204.57 495.333C1313.54 517.733 1426.94 479.142 1510.32 417.178C1593.69 355.214 1652.61 271.825 1710.09 189.774" stroke="#D1DEFF" stroke-miterlimit="10"/>
<path d="M-188.437 976.801C-174.852 918.124 -104.923 883.064 -37.2813 876.004C-7.96536 872.96 21.4936 873.691 51.0955 875.76C89.9928 878.438 128.89 883.186 167.501 883.916C246.297 885.377 323.233 868.213 390.732 834.857C442.928 809.049 489.262 775.084 526.3 734.302C552.756 705.329 573.921 672.704 588.65 637.278C595.228 621.452 600.663 605.14 605.668 588.705C615.821 555.35 624.115 521.507 637.272 489.247C652.144 452.604 674.739 417.179 708.202 393.075C718.641 385.527 729.939 379.075 742.38 373.962C794.434 352.658 854.639 359.962 912.27 378.101C937.152 385.892 961.606 395.753 984.344 406.222C1009.8 418.031 1034.68 430.691 1059.42 442.865C1108.04 466.725 1156.24 488.76 1208.29 496.673C1242.18 501.907 1275.5 500.446 1308.68 494.238C1375.75 481.455 1441.82 447.369 1496.87 403.788C1511.89 391.857 1526.33 379.197 1540.35 366.171C1602.27 307.981 1654.03 240.782 1705.09 177.236" stroke="#D1DEFF" stroke-miterlimit="10"/>
<path d="M-192.441 971.079C-177.569 912.768 -107.926 877.707 -40.1415 870.403C-10.8255 867.238 18.7765 867.969 48.5214 870.16C87.4187 873.082 126.173 878.316 164.927 879.777C243.58 882.82 320.23 868.334 388.443 836.439C441.212 811.726 488.261 779.344 526.729 740.145C554.186 712.024 576.066 679.886 591.51 644.704C598.374 629 604.095 612.687 609.243 596.253C619.825 563.019 628.548 529.054 642.277 497.037C657.864 460.638 681.174 426.065 715.781 403.178C726.506 396.118 737.947 390.031 750.388 385.405C802.728 366.049 862.075 375.179 919.563 393.318C944.589 401.231 969.185 410.604 992.066 420.465C1017.81 431.421 1042.98 443.108 1067.57 453.699C1116.05 474.76 1162.81 493.385 1211.86 498.011C1243.61 501.055 1274.07 497.524 1304.53 489.49C1366.31 473.055 1429.09 435.804 1483.14 390.396C1498.02 377.857 1512.32 364.831 1526.33 351.44C1588.82 291.546 1644.45 224.834 1699.51 164.818" stroke="#D1DEFF" stroke-miterlimit="10"/>
<path d="M-196.587 965.236C-180.428 907.289 -111.214 872.108 -43.2865 864.682C-13.9705 861.516 15.7745 862.125 45.5194 864.438C84.4167 867.481 123.171 873.203 161.782 875.394C240.292 879.899 316.799 868.334 385.727 837.778C438.925 814.161 486.975 783.483 526.73 745.745C555.331 718.598 577.926 686.946 593.942 652.008C601.092 636.426 606.956 620.235 612.533 603.8C623.544 570.566 632.84 536.602 646.997 504.828C663.157 468.673 687.324 434.952 722.932 413.161C733.944 406.465 745.384 400.865 757.969 396.726C810.451 379.318 869.083 390.274 926.571 408.413C951.597 416.326 976.337 425.456 999.646 434.586C1025.67 444.812 1050.99 455.16 1075.58 464.534C1123.92 482.794 1169.54 498.011 1215.44 499.229C1245.19 500.081 1272.5 494.481 1300.24 484.742C1356.73 464.899 1416.22 424.361 1469.27 376.883C1483.86 363.858 1498.16 350.223 1512.32 336.467C1575.38 274.746 1635.02 208.643 1693.93 152.158" stroke="#D1DEFF" stroke-miterlimit="10"/>
<path d="M-200.735 959.515C-183.289 901.812 -114.361 866.752 -46.2903 859.082C-16.8314 855.795 12.9136 856.404 42.6586 858.96C81.5559 862.247 120.31 868.334 158.778 871.378C237.145 877.343 313.509 868.578 383.01 839.483C436.779 816.961 485.687 787.988 526.729 751.71C556.474 725.537 579.784 694.373 596.373 659.678C603.809 644.095 609.958 628.026 615.678 611.592C627.119 578.479 636.843 544.393 651.715 512.863C668.59 477.073 693.33 443.96 730.225 423.509C741.379 417.3 753.106 412.065 765.547 408.413C818.316 392.953 876.09 405.735 933.435 423.996C958.46 432.03 983.486 440.674 1006.94 449.195C1033.11 458.691 1058.85 467.943 1083.3 475.734C1131.5 491.073 1175.97 503.003 1218.73 500.933C1246.47 499.594 1270.64 491.925 1295.81 480.36C1347 456.865 1403.06 413.283 1455.4 363.858C1469.7 350.223 1484 336.224 1498.3 322.102C1561.94 258.677 1625.43 193.183 1688.36 140.106" stroke="#D1DEFF" stroke-miterlimit="10"/>
<path d="M-204.74 953.793C-186.149 896.455 -117.364 861.395 -49.1505 853.482C-19.6915 850.073 10.1964 850.682 39.9414 853.36C78.8387 856.769 117.593 863.465 155.918 867.117C234.142 874.664 310.363 868.577 380.578 840.943C434.92 819.518 484.543 792.127 527.015 757.432C557.904 732.111 581.786 701.555 599.09 666.982C606.812 651.521 613.247 635.452 619.11 619.017C631.123 585.905 641.276 551.819 656.577 520.533C674.024 484.985 699.622 452.725 737.661 433.369C749.101 427.526 760.828 422.778 773.412 419.613C826.324 406.1 883.383 420.587 940.728 438.969C965.896 447.004 991.065 455.403 1014.8 463.195C1041.26 471.96 1067.14 479.994 1091.6 486.446C1139.65 498.985 1182.98 507.507 1222.59 502.029C1248.47 498.498 1269.35 488.759 1291.95 475.368C1337.85 448.343 1390.62 401.474 1441.96 350.101C1456.12 335.858 1470.27 321.372 1484.57 306.885C1548.78 241.634 1616.14 176.748 1683.21 127.202" stroke="#D1DEFF" stroke-miterlimit="10"/>
<path d="M-208.887 947.95C-189.01 890.977 -120.51 855.795 -52.1541 847.882C-22.6951 844.473 7.33582 844.96 37.0808 847.76C76.121 851.412 114.732 858.473 153.058 862.856C231.138 871.864 307.217 868.699 378.004 842.404C432.918 822.074 483.398 796.388 527.158 763.153C559.191 738.806 583.788 708.737 601.663 674.407C609.528 659.069 616.25 643.121 622.542 626.687C634.983 593.574 645.566 559.488 661.439 528.445C679.458 493.142 705.771 461.612 745.097 443.595C756.823 438.239 768.692 433.856 781.277 431.178C834.475 419.613 890.676 435.926 948.02 454.308C973.189 462.342 998.644 470.377 1022.53 477.559C1049.27 485.594 1075.29 492.411 1099.89 497.403C1147.65 507.141 1190.27 512.254 1226.45 503.489C1250.48 497.646 1268.21 485.838 1288.09 470.864C1328.7 440.308 1378.18 390.274 1428.66 336.954C1442.53 322.224 1456.69 307.25 1471.13 292.398C1535.91 225.443 1607.27 161.044 1678.2 114.906" stroke="#D1DEFF" stroke-miterlimit="10"/>
<path d="M-212.891 942.228C-191.726 885.62 -123.513 850.439 -55.1565 842.282C-25.5546 838.752 4.47647 839.239 34.3644 842.161C73.4047 845.934 111.873 853.482 150.198 858.717C228.136 869.308 304.071 868.821 375.431 843.987C430.916 824.752 482.255 800.77 527.158 768.997C560.335 745.623 585.647 716.041 604.095 681.955C612.246 666.738 619.253 650.791 625.689 634.356C638.559 601.366 649.57 567.158 666.016 536.358C684.749 501.298 711.634 470.62 752.248 453.699C764.117 448.708 776.129 444.812 788.857 442.499C842.198 432.882 897.683 451.021 954.885 469.403C980.197 477.559 1005.79 485.229 1029.82 491.681C1056.85 498.985 1083.16 504.585 1107.61 508.237C1155.23 515.176 1196.85 516.637 1229.6 504.828C1251.91 496.794 1266.21 482.916 1283.51 466.116C1318.83 431.908 1364.88 378.831 1414.5 323.441C1428.23 308.102 1442.25 292.642 1456.83 277.425C1522.18 208.643 1597.41 144.975 1672.34 102.246" stroke="#D1DEFF" stroke-miterlimit="10"/>
<path d="M-217.038 936.506C-194.587 880.142 -126.659 845.082 -58.1601 836.683C-28.5582 833.03 1.61584 833.517 31.5038 836.561C70.5441 840.578 109.012 848.491 147.195 854.456C224.989 866.508 300.781 868.821 372.856 845.447C428.914 827.309 481.11 805.031 527.301 774.719C561.622 752.197 587.506 723.224 606.668 689.26C615.106 674.164 622.256 658.217 628.977 641.782C642.277 608.792 653.86 574.584 670.735 544.028C690.04 509.211 717.783 479.264 759.397 463.682C771.553 459.178 783.708 455.647 796.436 453.821C850.062 446.152 904.547 466.116 961.892 484.499C987.204 492.655 1012.94 499.959 1037.4 505.803C1064.71 512.376 1091.17 516.881 1115.62 518.95C1163.1 523.089 1203.86 520.898 1233.17 505.924C1253.76 495.455 1264.63 479.629 1279.36 461.247C1309.39 423.387 1352.15 367.266 1400.92 309.929C1414.36 294.103 1428.37 278.155 1442.96 262.451C1508.88 191.966 1587.97 128.785 1666.9 89.5854" stroke="#D1DEFF" stroke-miterlimit="10"/>
<path d="M-221.043 930.663C-197.304 874.664 -129.663 839.483 -61.0205 830.961C-31.4185 827.309 -1.24455 827.674 28.7864 830.839C67.8267 834.978 106.295 843.5 144.334 850.195C221.986 863.83 297.492 868.943 370.282 846.909C426.911 829.865 479.966 809.292 527.444 780.44C562.909 758.893 589.508 730.407 609.242 696.686C617.966 681.712 625.402 665.886 632.409 649.452C646.28 616.583 658.15 582.253 675.74 551.941C695.76 517.368 724.075 488.151 766.976 473.908C779.275 469.769 791.573 466.847 804.444 465.386C858.213 459.664 911.983 481.455 969.328 499.838C994.783 507.994 1020.67 515.055 1045.26 520.168C1072.86 525.889 1099.46 529.298 1123.92 530.028C1171.11 531.367 1211.15 525.28 1237.03 507.507C1255.91 494.603 1263.35 476.951 1275.5 456.743C1300.24 415.352 1339.71 355.945 1387.47 296.781C1400.63 280.347 1414.64 263.912 1429.37 247.965C1495.87 175.775 1578.81 113.08 1661.76 77.4116" stroke="#D1DEFF" stroke-miterlimit="10"/>
<path d="M-225.189 924.942C-200.306 869.308 -132.808 834.126 -64.0226 825.361C-34.4206 821.587 -4.10358 821.952 25.9274 825.361C64.9677 829.743 103.436 838.63 141.475 846.056C218.984 861.152 294.347 869.064 367.851 848.491C425.053 832.543 479.109 813.674 527.731 786.284C564.34 765.71 591.654 737.711 611.96 704.233C620.97 689.381 628.692 673.556 635.842 657.121C650.143 624.252 662.584 589.923 680.603 559.854C701.195 525.646 730.225 497.038 774.414 484.012C786.998 480.36 799.44 477.803 812.31 476.829C866.366 473.055 919.277 496.551 976.479 515.055C1001.93 523.333 1028.1 529.906 1052.84 534.411C1080.59 539.402 1107.61 541.593 1131.93 540.863C1178.97 539.402 1218.16 529.298 1240.61 508.724C1257.63 493.142 1261.92 473.786 1271.35 451.873C1290.8 406.831 1326.98 344.38 1373.75 283.146C1386.76 266.103 1400.63 249.304 1415.5 232.869C1482.57 158.853 1569.52 96.8896 1656.47 64.6294" stroke="#D1DEFF" stroke-miterlimit="10"/>
<path d="M-229.336 919.219C-203.167 863.829 -135.954 828.769 -67.1691 819.761C-37.4241 815.865 -7.10719 816.23 23.0668 819.761C62.1071 824.265 100.432 833.639 138.471 841.795C215.837 858.473 291.057 869.064 365.134 849.951C422.908 835.1 477.822 817.935 527.73 792.005C565.483 772.405 593.512 744.893 614.391 711.537C623.686 696.807 631.552 680.981 638.988 664.547C653.717 631.678 666.588 597.47 685.178 567.523C706.343 533.558 736.088 505.68 781.564 493.994C794.291 490.707 807.018 488.637 819.746 488.15C873.944 486.324 926.141 511.645 983.343 530.149C1008.94 538.428 1035.25 544.758 1060.28 548.532C1088.31 552.792 1115.48 553.888 1139.79 551.697C1186.55 547.436 1224.73 533.193 1244.04 510.063C1259.2 491.924 1260.2 470.864 1267.06 447.247C1281.22 398.552 1313.97 333.058 1360.02 269.877C1372.74 252.347 1386.62 234.938 1401.49 218.26C1469.13 142.54 1559.94 81.0633 1650.89 52.3335" stroke="#D1DEFF" stroke-miterlimit="10"/>
<path d="M-233.34 913.376C-205.883 858.352 -138.957 823.17 -70.029 814.04C-40.2841 810.144 -9.82415 810.387 20.3498 814.04C59.5331 818.787 97.7153 828.648 135.612 837.535C212.834 855.673 287.912 869.064 362.703 851.413C421.049 837.656 476.821 822.196 528.016 797.727C566.914 779.101 595.515 752.076 617.108 718.963C626.547 704.355 634.841 688.651 642.42 672.216C657.578 639.469 670.878 605.14 690.041 575.558C711.92 541.837 742.237 514.568 789 504.22C802.013 501.298 814.741 499.716 827.611 499.716C882.096 499.837 933.434 526.985 990.636 545.61C1016.23 553.888 1042.69 559.854 1068 563.019C1096.32 566.549 1123.63 566.427 1147.94 562.775C1194.56 555.836 1231.46 537.332 1247.62 511.524C1260.77 490.707 1258.63 467.942 1262.77 442.621C1271.5 390.275 1301.1 321.615 1346.15 256.486C1358.59 238.347 1372.32 220.574 1387.47 203.409C1455.69 125.863 1550.36 64.9945 1645.31 39.6733" stroke="#D1DEFF" stroke-miterlimit="10"/>
<path d="M-237.488 907.655C-208.744 852.995 -142.104 817.813 -73.0327 808.561C-43.2877 804.544 -12.6848 804.787 17.4892 808.561C56.6725 813.431 94.8547 823.778 132.608 833.395C209.687 852.995 284.622 869.308 359.985 852.995C418.76 840.335 475.533 826.578 528.016 803.57C568.2 785.918 597.373 759.38 619.539 726.511C629.263 712.024 637.843 696.32 645.709 679.886C661.439 647.139 675.168 612.809 694.902 583.47C717.354 549.993 748.386 523.454 796.292 514.446C809.449 512.011 822.462 510.794 835.333 511.281C889.961 513.35 940.584 542.323 997.643 560.949C1023.24 569.349 1049.98 574.827 1075.44 577.384C1104.04 580.183 1131.5 578.966 1155.81 573.853C1202.14 564.114 1237.75 541.471 1251.05 513.107C1262.06 489.611 1256.91 465.264 1258.48 438.117C1261.92 382.24 1288.23 310.415 1332.42 243.338C1344.72 224.591 1358.3 206.33 1373.46 188.922C1442.24 109.672 1540.77 49.4121 1639.73 27.4995" stroke="#D1DEFF" stroke-miterlimit="10"/>
<path d="M-241.492 901.933C-211.461 847.517 -145.107 812.457 -75.8926 802.961C-46.0046 798.822 -15.4016 799.066 14.7724 802.961C53.9557 808.074 92.1378 818.787 129.891 829.256C206.828 850.439 281.619 869.429 357.698 854.578C417.044 843.013 474.818 831.082 528.445 809.413C569.773 792.735 599.661 766.684 622.399 733.937C632.409 719.45 641.133 703.868 649.284 687.433C665.444 654.808 679.601 620.356 699.908 591.261C723.074 558.027 754.678 532.098 803.872 524.428C817.314 522.359 830.328 521.628 843.341 522.602C898.255 526.498 948.021 557.419 1005.08 576.044C1030.82 584.444 1057.71 589.679 1083.45 591.505C1112.33 593.574 1140.08 591.14 1164.24 584.566C1210.43 572.027 1244.61 545.367 1255.05 514.324C1263.77 488.151 1255.77 462.099 1254.77 433.369C1252.76 373.84 1275.93 298.972 1319.12 229.826C1331.13 210.591 1344.72 191.844 1360.02 173.949C1429.37 92.872 1531.91 33.2211 1634.87 14.8389" stroke="#D1DEFF" stroke-miterlimit="10"/>
<path d="M-245.639 896.09C-214.464 842.039 -148.253 806.857 -79.0387 797.24C-49.1508 793.101 -18.4047 793.222 11.9123 797.362C51.0956 802.596 89.2777 813.918 126.888 824.996C203.681 847.639 278.187 869.43 354.98 856.039C414.899 845.569 473.531 835.343 528.445 815.135C570.917 799.431 601.378 773.866 624.83 741.363C635.127 726.998 644.136 711.537 652.43 695.103C669.019 662.477 683.748 628.026 704.484 599.175C728.223 566.184 760.399 540.984 811.022 534.654C824.751 532.95 837.907 532.706 850.921 534.167C905.977 540.011 955.028 572.636 1011.94 591.383C1037.68 599.905 1064.86 604.653 1090.74 605.87C1119.77 607.087 1147.8 603.679 1171.97 595.644C1218.01 580.427 1250.62 549.749 1258.34 515.785C1264.78 487.055 1253.91 459.299 1250.33 428.743C1243.04 365.562 1262.77 287.651 1305.25 216.557C1316.97 196.714 1330.56 177.479 1346 159.341C1415.93 76.5597 1522.33 17.3958 1629.29 2.54395" stroke="#D1DEFF" stroke-miterlimit="10"/>
<path d="M-249.643 890.368C-217.181 836.682 -151.256 801.501 -81.8989 791.64C-52.0109 787.379 -21.1219 787.501 9.19509 791.762C48.3784 797.24 86.4176 808.926 124.028 820.735C200.678 844.96 275.041 869.551 352.406 857.499C412.897 848.126 472.53 839.604 528.588 820.857C572.204 806.248 603.379 781.049 627.404 748.789C637.986 734.545 647.139 719.085 655.862 702.65C672.88 670.147 688.038 635.574 709.346 606.966C733.657 574.34 766.548 549.628 818.458 544.758C832.33 543.419 845.629 543.662 858.786 545.61C914.129 553.401 962.321 587.853 1019.24 606.6C1045.12 615.122 1072.43 619.626 1098.6 620.113C1127.92 620.6 1156.09 615.974 1180.26 606.479C1226.02 588.462 1257.2 553.767 1262.2 517.124C1266.35 485.838 1252.48 456.377 1246.47 424.117C1233.6 357.406 1250.33 276.207 1291.8 203.287C1303.39 182.957 1316.83 163.236 1332.27 144.61C1402.78 60.0032 1513.03 1.44796 1624 -9.87354" stroke="#D1DEFF" stroke-miterlimit="10"/>
<path d="M-253.79 884.646C-220.04 831.325 -154.401 796.144 -84.9011 786.039C-54.8701 781.657 -23.9811 781.779 6.33587 786.161C45.6621 791.883 83.5584 803.935 121.169 816.595C197.676 842.282 271.895 869.672 349.976 859.081C411.039 850.803 471.53 844.108 528.875 826.699C573.778 813.065 605.525 788.352 630.122 756.336C640.991 742.214 650.429 726.754 659.295 710.319C676.742 677.816 692.329 643.242 714.209 614.878C739.235 582.496 772.841 558.392 825.753 554.862C839.91 553.888 853.353 554.618 866.509 556.931C921.995 566.67 969.472 602.948 1026.39 621.695C1052.27 630.217 1079.73 634.356 1106.18 634.234C1135.79 633.99 1164.24 628.269 1188.27 617.313C1233.89 596.496 1263.49 558.027 1265.63 518.341C1267.49 484.62 1250.76 453.212 1242.18 419.247C1224.02 349.005 1237.46 264.642 1277.93 189.652C1289.23 168.714 1302.67 148.505 1318.26 129.636C1389.33 43.3249 1503.45 -14.6216 1618.43 -22.6562" stroke="#D1DEFF" stroke-miterlimit="10"/>
<path d="M-257.937 878.803C-222.901 825.725 -157.691 790.544 -87.9047 780.318C-57.8737 775.935 -26.9848 775.935 3.47524 780.439C42.8015 786.283 80.6978 798.943 118.165 812.213C194.529 839.482 268.606 869.551 347.258 860.42C408.893 853.238 470.242 848.368 528.874 832.299C574.922 819.639 607.241 795.413 632.553 763.518C643.707 749.518 653.431 734.18 662.441 717.745C680.459 685.241 696.476 650.668 718.928 622.547C744.525 590.409 778.847 566.914 833.045 564.844C847.346 564.357 860.931 565.575 874.231 568.253C930.002 579.939 976.479 618.043 1033.39 636.79C1059.42 645.434 1087.02 649.207 1113.62 648.355C1143.51 647.381 1172.11 640.442 1196.13 628.025C1241.61 604.53 1269.64 562.044 1269.07 519.558C1268.64 483.402 1249.19 450.168 1237.89 414.378C1214.44 340.484 1224.45 253.077 1264.2 176.139C1275.22 154.592 1288.66 134.019 1304.39 114.662C1376.03 26.5252 1494.16 -30.8126 1612.99 -35.3169" stroke="#D1DEFF" stroke-miterlimit="10"/>
<path d="M-261.941 873.082C-225.761 820.37 -160.694 785.188 -90.9076 774.718C-60.8767 770.214 -29.8446 770.214 0.758386 774.84C40.0847 780.927 77.9809 793.953 115.305 808.074C191.527 836.804 265.46 869.794 344.828 862.003C407.035 855.917 469.385 852.751 529.018 838.143C576.209 826.578 609.243 802.718 635.27 771.066C646.567 757.188 656.578 741.849 666.016 725.415C684.464 693.033 700.909 658.338 723.933 630.461C750.246 598.566 785.139 575.679 840.625 574.949C855.211 574.827 868.939 576.531 882.096 579.696C938.011 593.331 983.772 633.26 1040.69 652.13C1066.71 660.773 1094.6 664.182 1121.49 662.721C1151.66 661.016 1180.55 652.982 1204.43 639.104C1249.76 612.93 1276.22 566.549 1272.93 521.019C1270.07 482.429 1247.9 447.369 1234.03 409.874C1205.29 332.328 1212.01 241.878 1250.76 162.871C1261.63 140.836 1274.93 119.654 1290.66 100.055C1362.88 10.213 1484.86 -46.6379 1607.84 -47.6118" stroke="#D1DEFF" stroke-miterlimit="10"/>
<path d="M-266.089 867.36C-228.622 815.013 -163.841 779.832 -93.9112 769.241C-63.7373 764.615 -32.7052 764.615 -2.10224 769.362C37.224 775.571 75.1203 789.084 112.301 803.935C188.38 834.248 262.17 869.917 342.11 863.586C404.889 858.595 468.097 857.378 529.017 843.987C577.353 833.518 611.102 810.022 637.701 778.614C649.284 764.858 659.58 749.519 669.162 733.085C688.038 700.703 705.056 666.008 728.509 638.374C755.393 606.722 791.001 584.323 847.774 585.175C862.504 585.418 876.375 587.61 889.675 591.262C945.876 606.844 990.779 648.478 1047.69 667.469C1073.86 676.112 1101.89 679.277 1128.92 677.086C1159.24 674.651 1188.41 665.399 1212.29 650.06C1257.48 621.087 1282.37 570.932 1276.36 522.481C1271.21 481.455 1246.19 444.447 1229.74 405.248C1195.56 324.172 1199.14 230.435 1237.03 149.602C1247.62 126.959 1260.91 105.411 1276.79 85.3246C1349.58 -6.343 1475.42 -62.4636 1602.41 -60.0288" stroke="#D1DEFF" stroke-miterlimit="10"/>
<path d="M-270.093 861.517C-214.607 787.014 -106.352 747.084 -4.81916 763.64C114.876 783.118 219.412 872.351 339.679 864.925C403.03 861.029 467.096 861.516 529.303 849.586C600.519 835.952 640.275 794.44 672.594 740.51C714.065 671.242 746.527 590.896 855.211 595.157C933.72 598.2 984.63 659.069 1054.85 682.564C1110.33 701.068 1175.4 692.546 1220.44 660.773C1265.49 629 1288.8 575.192 1280.08 523.697C1272.64 480.238 1244.76 441.404 1225.74 400.378C1175.26 292.033 1189.7 163.722 1263.06 70.3505C1336.42 -23.0215 1466.27 -78.6551 1597.12 -72.69" stroke="#D1DEFF" stroke-miterlimit="10"/>
<path d="M-263.8 872.23C-207.456 803.57 -99.9167 766.441 0.901534 781.658C51.3822 789.205 99.2888 808.44 146.623 826.944C195.102 846.056 242.722 864.56 292.488 870.039C308.505 871.743 324.807 872.23 341.253 870.769C403.174 865.291 465.81 863.952 527.731 851.534C597.946 837.535 638.416 797.727 671.879 746.841C679.602 735.154 687.038 723.224 694.617 711.416C716.926 676.721 740.665 643.852 778.132 625.713C799.154 615.487 824.322 609.766 855.783 610.74C933.292 612.931 984.059 668.686 1051.99 688.773C1061 691.451 1070.29 693.399 1079.59 694.616C1126.06 700.703 1175.11 689.26 1211.01 662.356C1254.05 630.096 1276.36 576.775 1268.21 525.767C1261.34 482.551 1235.32 443.474 1217.73 402.448C1187.41 331.719 1183.98 252.834 1205.86 181.253C1217.59 143.028 1236.6 106.872 1262.35 74.977C1309.54 16.7869 1378.89 -26.3079 1456.83 -49.0726C1501.59 -62.0985 1549.21 -68.307 1596.98 -66.6027" stroke="#D1DEFF" stroke-miterlimit="10"/>
<path d="M-257.365 882.942C-200.306 820.126 -93.3384 785.796 6.9078 799.674C57.2454 806.613 104.866 824.022 151.629 840.578C199.535 857.499 246.298 873.69 295.205 877.342C310.936 878.56 326.809 878.438 342.969 876.612C403.603 869.551 464.666 866.508 526.158 853.604C595.229 839.36 636.557 801.013 671.021 753.171C679.03 742.093 686.752 731.015 694.617 719.937C717.641 687.555 741.666 657.242 779.133 640.443C800.297 631.069 825.323 625.591 856.212 626.2C932.72 627.661 983.343 678.181 1048.98 694.859C1057.71 697.05 1066.57 698.511 1075.58 699.363C1120.34 703.502 1167.25 690.963 1201.43 663.695C1242.47 630.947 1263.78 578.235 1256.34 527.715C1250.19 484.742 1225.74 445.543 1209.86 404.396C1182.12 333.667 1180.55 255.147 1203.57 184.418C1216.01 146.436 1235.6 110.767 1261.92 79.3591C1309.82 22.143 1379.32 -19.9779 1457.4 -42.7426C1502.16 -55.7684 1549.5 -62.0987 1597.12 -60.6379" stroke="#D1DEFF" stroke-miterlimit="10"/>
<path d="M-250.929 893.654C-193.013 836.682 -86.7602 805.03 12.771 817.569C62.8227 823.778 110.3 839.604 156.634 853.968C204.111 868.82 250.016 882.455 297.922 884.403C313.367 885.011 328.954 884.403 344.685 882.211C404.032 873.568 463.522 868.577 524.728 855.307C592.798 840.577 634.841 804.056 670.449 759.257C678.601 748.91 686.752 738.562 694.76 728.336C718.499 698.389 742.81 670.39 780.277 655.051C801.442 646.408 826.467 641.173 856.784 641.538C932.291 642.147 982.628 687.676 1046.27 700.824C1054.7 702.528 1063.28 703.624 1072.01 704.111C1115.05 706.302 1159.81 692.668 1192.42 665.033C1231.6 631.921 1251.76 579.696 1245.04 529.662C1239.46 486.811 1216.87 447.49 1202.43 406.343C1177.4 335.614 1177.4 257.459 1201.71 187.583C1214.87 149.844 1235.03 114.663 1261.77 83.8632C1310.4 27.6209 1380.04 -13.5261 1458.12 -36.2908C1502.74 -49.1949 1550.07 -55.6469 1597.55 -54.673" stroke="#D1DEFF" stroke-miterlimit="10"/>
<path d="M-244.494 904.368C-185.719 853.117 -80.1818 824.387 18.7774 835.587C68.686 841.065 115.878 855.187 161.782 867.604C208.831 880.264 253.734 891.464 300.782 891.707C315.941 891.829 331.099 890.733 346.544 888.055C404.604 877.951 462.521 871.134 523.441 857.378C590.367 842.282 633.268 807.466 669.878 765.588C678.315 755.971 686.752 746.354 695.046 736.859C719.5 709.224 744.097 683.66 781.564 669.782C802.872 661.869 827.755 657.243 857.5 657.121C932.005 656.878 982.057 697.294 1043.55 707.033C1051.7 708.372 1059.99 708.981 1068.29 708.981C1109.62 709.224 1152.09 694.494 1183.12 666.495C1220.3 632.896 1239.32 581.279 1233.46 531.611C1228.45 489.003 1207.72 449.439 1194.85 408.292C1172.4 337.441 1174.25 259.773 1199.85 190.627C1213.72 153.132 1234.6 118.559 1261.63 88.1246C1310.97 32.8562 1380.75 -7.43862 1458.98 -29.9599C1503.59 -42.864 1550.64 -49.4377 1597.98 -48.7073" stroke="#D1DEFF" stroke-miterlimit="10"/>
<path d="M-238.203 914.959C-178.57 869.551 -73.7475 843.621 24.4967 853.36C74.1193 858.23 121.311 870.647 166.643 880.873C213.12 891.464 257.165 900.229 303.356 898.646C318.228 898.159 333.101 896.577 348.116 893.533C404.889 881.847 461.233 873.203 521.724 858.96C587.649 843.5 631.265 810.266 669.019 771.553C677.742 762.545 686.465 753.78 695.045 745.137C720.071 719.815 745.24 696.807 782.707 684.268C804.158 677.086 828.755 672.582 858.071 672.338C931.575 671.608 981.484 706.546 1040.69 712.876C1048.55 713.729 1056.56 713.85 1064.43 713.607C1103.9 712.024 1144.37 696.077 1173.68 667.712C1209 633.626 1226.88 582.496 1221.73 533.437C1217.3 491.072 1198.42 451.386 1186.98 410.118C1167.25 339.267 1170.82 261.964 1197.56 193.67C1212.15 156.419 1233.6 122.332 1261.06 92.5069C1311.11 38.2124 1381.04 -1.10853 1459.41 -23.6298C1503.88 -36.4121 1550.79 -43.1077 1597.98 -42.8642" stroke="#D1DEFF" stroke-miterlimit="10"/>
<path d="M-231.768 925.672C-171.277 886.107 -67.1692 862.856 30.3599 871.377C79.6965 875.516 126.745 886.229 171.649 894.507C217.696 902.907 260.74 909.237 306.073 905.95C320.659 904.855 335.103 902.907 349.832 899.376C405.318 886.107 460.089 875.638 520.294 861.029C585.075 845.204 629.549 813.674 668.304 777.883C677.313 769.605 686.322 761.571 695.046 753.658C720.786 730.65 746.241 710.076 783.708 698.998C805.159 692.546 829.756 688.407 858.5 687.798C931.146 686.216 980.769 716.041 1037.68 718.963C1045.26 719.328 1052.84 719.085 1060.57 718.354C1098.32 714.824 1136.64 697.781 1164.39 669.051C1197.71 634.478 1214.58 583.957 1210.15 535.384C1206.29 493.263 1189.13 453.334 1179.4 412.065C1162.24 341.214 1167.82 264.277 1195.56 196.835C1210.86 159.827 1232.89 126.228 1260.77 96.8892C1311.4 43.5686 1381.47 5.22156 1459.98 -17.2997C1504.45 -30.082 1551.21 -36.8993 1598.26 -37.021" stroke="#D1DEFF" stroke-miterlimit="10"/>
<path d="M-225.332 936.384C-164.126 902.663 -60.4479 882.211 36.3662 889.394C85.5598 892.803 132.322 901.933 176.797 908.02C222.415 914.35 264.602 918.124 308.933 913.133C323.234 911.55 337.391 908.994 351.692 905.098C405.89 890.368 459.231 877.951 518.864 862.855C582.644 846.786 627.834 816.717 667.732 784.092C677.027 776.422 686.322 769.24 695.332 762.179C721.788 741.606 747.671 723.467 784.996 713.728C806.589 708.128 831.043 704.233 859.215 703.259C930.86 700.946 980.197 725.658 1034.97 725.05C1042.26 724.928 1049.55 724.319 1056.85 723.224C1092.88 717.745 1128.92 699.607 1155.09 670.512C1186.41 635.452 1202.28 585.54 1198.57 537.332C1195.28 495.333 1180.12 455.282 1171.68 413.891C1157.38 343.04 1164.53 266.468 1193.56 199.878C1209.58 163.114 1232.17 130.123 1260.49 101.272C1311.82 48.925 1382.04 11.552 1460.69 -10.8476C1505.02 -23.5082 1551.64 -30.4471 1598.55 -30.9341" stroke="#D1DEFF" stroke-miterlimit="10"/>
<path d="M-218.897 947.098C-156.833 919.22 -53.8696 901.69 42.2296 907.29C91.1371 910.212 137.757 917.394 181.802 921.533C226.849 925.672 268.177 927.011 311.65 920.316C325.665 918.124 339.393 915.081 353.408 910.82C406.176 894.508 458.087 880.386 517.434 864.804C580.213 848.369 626.261 820.005 667.16 790.301C676.741 783.362 686.323 776.91 695.618 770.58C722.646 752.319 748.958 736.737 786.283 728.337C808.019 723.468 832.33 719.937 859.93 718.72C930.574 715.676 979.768 735.154 1032.25 731.137C1039.26 730.65 1046.27 729.554 1053.13 728.094C1087.45 720.668 1121.34 701.433 1145.8 671.973C1175.26 636.426 1189.98 587.001 1186.84 539.402C1184.12 497.646 1170.82 457.473 1163.96 415.961C1152.23 345.11 1161.24 268.903 1191.41 203.165C1208.15 166.644 1231.46 134.141 1260.06 105.898C1312.11 54.5251 1382.47 18.1258 1461.12 -4.27369C1505.31 -16.9343 1551.93 -23.8733 1598.55 -24.8472" stroke="#D1DEFF" stroke-miterlimit="10"/>
<path d="M-212.604 957.81C-149.682 935.776 -47.4342 921.046 48.093 925.306C96.8575 927.498 143.191 933.098 186.807 935.045C231.425 937.115 271.752 936.019 314.368 927.498C327.953 924.82 341.538 921.289 355.124 916.541C406.606 898.646 456.943 882.699 515.861 866.751C577.496 849.952 624.402 823.291 666.302 796.631C676.169 790.422 686.037 784.701 695.618 779.101C723.361 763.153 750.103 750.006 787.284 743.067C809.164 738.928 833.188 735.641 860.359 734.18C930.003 730.285 979.053 744.649 1029.25 737.224C1035.97 736.25 1042.69 734.667 1049.13 732.841C1081.73 723.467 1113.48 703.137 1136.22 673.312C1163.67 637.4 1177.4 588.461 1174.97 541.228C1172.97 499.716 1161.24 459.299 1156.09 417.787C1147.08 346.936 1157.81 271.094 1189.27 206.209C1206.72 169.931 1230.6 137.915 1259.63 110.159C1312.4 59.7596 1382.9 24.3343 1461.69 1.9348C1505.88 -10.6041 1552.22 -17.7865 1598.84 -19.0039" stroke="#D1DEFF" stroke-miterlimit="10"/>
<path d="M-206.169 968.523C-142.389 952.21 -40.8559 940.402 53.9562 943.324C102.435 944.784 148.625 948.68 191.813 948.68C236.001 948.68 275.327 945.028 317.085 934.802C330.384 931.515 343.541 927.498 356.84 922.385C407.035 902.907 455.799 885.255 514.431 868.699C575.065 851.656 622.829 826.456 665.73 802.961C675.883 797.361 686.037 792.492 695.761 787.744C724.076 774.11 751.39 763.519 788.428 757.919C810.451 754.632 834.333 751.588 860.931 749.762C929.574 745.136 978.481 754.145 1026.39 743.432C1032.82 741.971 1039.12 740.023 1045.41 737.832C1076.3 726.632 1105.76 705.085 1127.06 674.894C1152.66 638.495 1165.25 590.166 1163.53 543.419C1162.1 502.15 1152.23 461.612 1148.51 419.978C1142.08 349.127 1154.81 273.651 1187.27 209.617C1205.57 173.705 1229.88 142.053 1259.49 114.906C1312.97 65.4812 1383.61 31.0298 1462.55 8.63023C1506.6 -3.90863 1552.79 -11.0911 1599.26 -12.7954" stroke="#D1DEFF" stroke-miterlimit="10"/>
<path d="M-199.734 979.114C-135.096 968.644 -34.2776 959.514 59.9625 961.097C108.298 961.949 154.203 964.14 196.818 961.949C240.434 959.758 278.903 953.671 319.802 941.741C332.815 937.845 345.686 933.341 358.556 927.863C407.464 906.802 454.655 887.324 513.001 870.403C572.634 852.995 621.256 829.5 665.015 808.926C675.455 804.057 685.751 799.796 695.904 795.9C724.934 784.579 752.534 776.544 789.572 772.283C811.738 769.727 835.477 767.049 861.647 764.979C929.288 759.501 977.909 763.397 1023.67 749.275C1029.82 747.327 1035.83 745.014 1041.69 742.336C1070.86 729.189 1098.18 706.546 1117.77 675.99C1141.36 639.104 1152.95 591.261 1151.95 545.123C1151.09 503.976 1143.08 463.316 1140.93 421.682C1137.22 350.71 1151.66 275.72 1185.27 212.539C1204.29 176.87 1229.31 145.827 1259.2 119.045C1313.4 70.594 1384.19 37.1165 1463.12 14.8387C1507.17 2.42156 1553.22 -5.00436 1599.41 -6.95215" stroke="#D1DEFF" stroke-miterlimit="10"/>
<path d="M-193.299 989.827C-127.945 985.201 -27.6992 978.871 65.8258 979.114C113.875 979.236 159.637 979.845 201.823 975.462C245.011 971.201 282.621 962.68 322.519 948.923C335.247 944.541 347.831 939.55 360.272 933.585C407.893 910.942 453.511 889.759 511.428 872.229C569.917 854.578 619.397 832.665 664.3 815.135C675.026 810.996 685.608 807.466 696.047 804.422C725.649 795.414 753.821 789.936 790.716 787.136C812.882 785.431 836.621 782.997 862.219 780.562C928.859 774.353 977.337 773.014 1020.81 755.484C1026.67 753.049 1032.39 750.371 1037.83 747.328C1065.29 732.232 1090.31 708.494 1108.33 677.573C1129.92 640.2 1140.51 592.966 1140.22 547.193C1139.93 506.289 1133.78 465.508 1133.07 423.752C1131.93 352.78 1148.37 278.155 1183.12 215.826C1202.86 180.401 1228.45 149.845 1258.77 123.671C1313.68 76.0723 1384.61 43.6904 1463.7 21.4126C1507.6 8.99545 1553.5 1.5695 1599.69 -0.865234" stroke="#D1DEFF" stroke-miterlimit="10"/>
<path d="M-187.008 1000.54C-120.796 1001.76 -21.2651 998.105 71.5449 997.131C119.308 996.522 164.927 995.427 206.684 989.097C249.443 982.645 286.052 971.688 325.092 956.228C337.533 951.236 349.689 945.758 361.701 939.428C408.035 915.203 452.08 892.194 509.711 874.299C567.199 856.404 617.537 836.074 663.298 821.465C674.309 817.935 685.178 815.257 695.76 812.944C725.934 806.248 754.678 803.326 791.43 801.866C813.739 800.892 837.335 798.701 862.361 796.022C928 788.962 976.335 782.51 1017.52 761.449C1023.1 758.649 1028.53 755.362 1033.68 751.954C1059.42 734.911 1082.3 710.076 1098.75 678.79C1118.48 640.93 1127.92 594.305 1128.35 549.019C1128.78 508.359 1124.2 467.334 1125.2 425.578C1126.78 354.606 1144.94 280.346 1180.83 218.869C1201.28 183.687 1227.45 153.619 1258.2 127.932C1313.83 81.307 1384.9 49.899 1464.12 27.6212C1508.03 15.3258 1553.64 7.65639 1599.69 4.85645" stroke="#D1DEFF" stroke-miterlimit="10"/>
<path d="M-180.572 1011.25C-113.503 1018.31 -14.5439 1017.46 77.5511 1015.03C125.172 1013.81 170.504 1011.01 211.833 1002.49C254.019 993.966 289.77 980.575 327.952 963.288C340.108 957.81 351.977 951.723 363.56 945.028C408.464 919.219 451.079 894.507 508.281 876.003C564.768 857.742 615.964 839.117 662.726 827.552C674.024 824.752 685.178 822.804 696.046 821.221C726.935 816.839 755.965 815.622 792.717 816.352C815.169 816.717 838.479 814.283 863.076 811.239C927.714 803.448 975.763 791.64 1014.8 767.292C1020.09 764.005 1025.1 760.353 1029.96 756.579C1053.99 737.588 1074.72 711.659 1089.45 680.007C1107.18 641.66 1115.62 595.522 1116.77 550.845C1117.77 510.428 1115.05 469.159 1117.48 427.404C1121.63 356.431 1141.79 282.537 1178.69 221.791C1199.99 186.852 1226.59 157.392 1257.77 132.193C1314.11 86.5414 1385.33 56.1073 1464.55 33.9512C1508.31 21.6558 1553.93 13.9864 1599.69 10.8213" stroke="#D1DEFF" stroke-miterlimit="10"/>
<path d="M-174.137 1021.96C-106.21 1034.87 -7.9655 1036.57 83.4145 1033.04C130.749 1030.97 176.081 1026.59 216.838 1016.12C258.595 1005.41 293.345 989.583 330.669 970.592C342.539 964.505 353.979 958.053 365.277 950.871C408.893 923.358 450.078 897.063 506.851 878.072C562.194 859.568 614.391 842.647 662.154 833.882C673.738 831.812 685.178 830.595 696.332 829.865C727.794 827.795 757.395 830.108 794.148 831.204C816.742 831.934 839.909 830.108 863.934 826.943C927.571 818.3 975.477 801.378 1012.23 773.622C1017.23 769.849 1021.95 765.831 1026.39 761.692C1048.7 740.875 1067.14 713.728 1080.3 681.711C1096.17 642.877 1103.47 597.348 1105.18 553.036C1106.9 512.741 1105.75 471.472 1109.9 429.473C1116.48 358.501 1138.65 284.972 1176.83 225.078C1198.85 190.383 1226.16 161.409 1257.63 136.819C1314.68 92.1414 1385.9 62.5594 1465.41 40.5251C1509.17 28.3514 1554.5 20.4386 1600.26 16.9082" stroke="#D1DEFF" stroke-miterlimit="10"/>
<path d="M-167.844 1032.68C-99.0593 1051.43 -1.5301 1055.93 89.2778 1050.94C136.469 1048.26 181.516 1042.17 221.843 1029.51C263.172 1016.73 297.064 998.47 333.387 977.531C344.97 970.958 356.125 963.897 366.993 956.349C409.322 927.254 448.935 899.255 505.421 879.655C559.763 860.908 612.818 845.569 661.439 839.847C673.309 838.508 685.035 838.143 696.476 838.021C728.509 837.656 758.683 843.134 795.292 845.569C818.03 847.03 841.053 845.569 864.506 842.039C927.142 832.543 974.763 810.387 1009.37 779.344C1014.09 775.083 1018.52 770.579 1022.67 766.075C1043.12 743.31 1059.56 715.067 1071.15 682.686C1085.02 643.486 1091.31 598.444 1093.74 554.619C1096.03 514.567 1096.75 473.055 1102.32 431.056C1111.62 360.084 1135.64 286.92 1174.83 227.878C1197.56 193.548 1225.45 164.94 1257.34 140.836C1314.97 97.1328 1386.47 68.5247 1466.13 46.4904C1509.74 34.4385 1554.93 26.4039 1600.55 22.5083" stroke="#D1DEFF" stroke-miterlimit="10"/>
<path d="M-161.409 1043.39C-91.9089 1067.86 5.04826 1075.29 95.1412 1068.96C142.047 1065.55 186.95 1057.76 226.848 1043.15C267.605 1028.17 300.639 1007.48 336.104 984.836C347.401 977.654 358.127 970.106 368.709 962.193C409.751 931.516 447.791 901.69 503.848 881.725C557.189 862.613 611.102 849.1 660.725 846.178C672.88 845.448 684.892 845.813 696.476 846.665C729.224 849.1 759.684 856.648 796.293 860.422C819.174 862.735 842.054 861.517 864.935 857.622C926.57 847.274 974.048 820.005 1006.37 785.554C1010.8 780.806 1014.95 775.936 1018.67 771.067C1037.4 746.354 1051.7 717.016 1061.57 684.269C1073.44 644.583 1078.73 600.027 1081.87 556.811C1084.73 517.003 1087.31 475.369 1094.46 433.248C1106.33 362.275 1132.35 289.599 1172.54 231.287C1196.13 197.201 1224.45 169.08 1256.91 145.584C1315.26 102.855 1386.9 75.2206 1466.56 53.1863C1510.17 41.1344 1555.22 32.9781 1600.55 28.7173" stroke="#D1DEFF" stroke-miterlimit="10"/>
<path d="M-154.974 1053.98C-84.6156 1084.29 11.6265 1094.4 101.004 1086.85C147.624 1082.71 192.384 1073.34 231.854 1056.54C272.181 1039.5 304.357 1016.37 338.821 991.896C349.833 984.227 360.129 976.071 370.425 967.792C410.038 935.411 446.647 904.003 502.418 883.429C554.758 864.073 609.386 851.656 660.01 852.264C672.451 852.386 684.749 853.238 696.619 854.943C729.939 859.691 760.971 869.916 797.437 874.908C820.318 878.073 843.056 876.977 865.507 872.838C926.141 861.76 973.333 829.135 1003.51 791.396C1007.65 786.283 1011.37 780.927 1014.8 775.571C1031.82 748.91 1043.83 718.476 1052.13 685.364C1062.14 645.191 1066.29 601.244 1070.15 558.393C1073.72 518.828 1077.87 476.951 1086.74 434.83C1101.32 363.858 1129.21 291.546 1170.54 234.087C1194.85 200.244 1223.88 172.731 1256.63 149.601C1315.69 107.846 1387.47 81.1855 1467.27 59.2729C1510.74 47.3427 1555.65 39.0646 1600.98 34.3169" stroke="#D1DEFF" stroke-miterlimit="10"/>
<path d="M-148.539 1064.69C-77.3223 1100.85 18.2049 1113.75 107.011 1104.75C153.487 1100 197.962 1088.8 237.002 1070.05C276.9 1050.82 308.075 1025.25 341.681 999.079C352.264 990.801 362.417 982.279 372.284 973.514C410.61 939.55 445.789 906.437 500.988 885.377C552.327 865.777 607.813 855.552 659.438 858.595C672.165 859.325 684.606 861.03 696.905 863.586C730.94 870.525 762.258 883.429 798.724 889.76C821.748 893.777 844.343 892.925 866.222 888.542C925.855 876.612 972.761 838.874 1000.79 797.727C1004.65 792.127 1008.08 786.405 1011.09 780.684C1026.39 752.075 1036.25 720.546 1042.83 687.068C1050.84 646.408 1054.13 603.07 1058.56 560.706C1062.85 521.263 1068.72 479.264 1079.01 437.143C1096.17 366.17 1126.06 294.346 1168.39 237.617C1193.56 204.139 1223.02 176.992 1256.2 154.471C1315.97 113.689 1387.9 88.0023 1467.84 66.0897C1511.17 54.1596 1555.93 45.8815 1601.12 40.7686" stroke="#D1DEFF" stroke-miterlimit="10"/>
<path d="M-142.246 1075.41C-70.1718 1117.41 24.6403 1133.11 112.731 1122.76C158.922 1117.29 203.253 1104.5 241.864 1083.56C281.191 1062.26 311.508 1034.26 344.256 1006.26C354.552 997.497 364.276 988.366 373.858 979.236C410.753 943.689 444.502 908.994 499.416 887.325C549.753 867.604 605.954 858.96 658.58 864.804C671.593 866.265 684.321 868.699 696.762 871.986C731.369 881.117 763.259 896.821 799.582 904.368C822.749 909.238 845.201 908.507 866.509 903.881C925.141 890.977 971.76 848.126 997.644 803.692C1001.22 797.605 1004.37 791.397 1007.08 785.31C1020.67 754.876 1028.39 722.129 1033.4 688.286C1039.54 647.139 1041.69 604.288 1046.84 562.532C1051.7 523.333 1059.42 481.212 1071.29 438.969C1091.17 367.875 1122.92 296.538 1166.25 240.661C1192.13 207.426 1222.16 180.766 1255.77 158.732C1316.26 118.924 1388.33 94.2115 1468.27 72.2989C1511.6 60.4904 1556.22 51.9689 1601.12 46.4907" stroke="#D1DEFF" stroke-miterlimit="10"/>
<path d="M-135.811 1086.12C-24.5532 1159.04 136.47 1163.79 246.87 1097.08C285.767 1073.58 315.083 1043.15 346.973 1013.44C396.023 967.671 429.344 917.028 497.843 889.151C559.335 864.073 632.982 859.569 696.905 880.386C732.227 891.829 764.403 910.089 800.727 918.976C897.255 942.471 977.48 860.664 1003.22 790.179C1029.53 718.354 1024.39 639.956 1035.11 564.601C1049.84 460.273 1093.03 331.719 1164.1 243.825C1238.89 151.427 1344.29 112.715 1468.84 78.8721C1512.03 67.0636 1556.51 58.5421 1601.41 52.6987" stroke="#D1DEFF" stroke-miterlimit="10"/>
</g>
</svg>
